<svg width="49" height="45" viewBox="0 0 49 45" fill="none" xmlns="http://www.w3.org/2000/svg">
<path d="M24.6164 6.2259C25.5412 6.2259 26.2974 6.98207 26.2974 7.90691C26.2974 9.45414 27.5538 10.7105 29.101 10.7105C30.6482 10.7105 31.9046 9.45414 31.9046 7.90691C31.9046 3.88761 28.6357 0.618652 24.6164 0.618652C20.5971 0.618652 17.3281 3.88761 17.3281 7.90691C17.3281 9.18658 17.6655 10.4488 18.3053 11.5481L26.0764 25.002C26.2218 25.258 26.2974 25.543 26.2974 25.8396C26.2974 26.7645 25.5412 27.5207 24.6164 27.5207C23.6915 27.5207 22.9354 26.7645 22.9354 25.8396C22.9354 24.2924 21.679 23.036 20.1317 23.036C18.5845 23.036 17.3281 24.2924 17.3281 25.8396C17.3281 29.8589 20.5971 33.1279 24.6164 33.1279C28.6357 33.1279 31.9046 29.8589 31.9046 25.8396C31.9046 24.56 31.5673 23.2978 30.9274 22.1926L23.1564 8.73869C23.011 8.48276 22.9354 8.20356 22.9354 7.9011C22.9354 6.97625 23.6915 6.22009 24.6164 6.22009V6.2259Z" fill="#00CCCB"/>
<path d="M7.34685 5.10303H2.86222C1.30917 5.10303 0.0585938 6.35942 0.0585938 7.90665V25.8452C0.0585938 27.3924 1.31499 28.6488 2.86222 28.6488C4.40945 28.6488 5.66584 27.3924 5.66584 25.8452V19.6795H7.34685C11.3662 19.6795 14.6351 16.4106 14.6351 12.3913C14.6351 8.37198 11.3662 5.10303 7.34685 5.10303ZM7.34685 14.0723H5.66584V10.7103H7.34685C8.2717 10.7103 9.02787 11.4664 9.02787 12.3913C9.02787 13.3161 8.2717 14.0723 7.34685 14.0723Z" fill="#00CCCB"/>
<path d="M46.1957 5.10303H41.7111C40.1639 5.10303 38.9075 6.35942 38.9075 7.90665C38.9075 9.45388 40.1639 10.7103 41.7111 10.7103H43.3921V21.3606C43.3921 22.2854 42.636 23.0416 41.7111 23.0416C40.7863 23.0416 40.0301 22.2854 40.0301 21.3606C40.0301 19.8133 38.7737 18.5569 37.2265 18.5569C35.6792 18.5569 34.4229 19.8133 34.4229 21.3606C34.4229 25.3799 37.6918 28.6488 41.7111 28.6488C45.7304 28.6488 48.9994 25.3799 48.9994 21.3606V7.90665C48.9994 6.35942 47.743 5.10303 46.1957 5.10303Z" fill="#00CCCB"/>
<path d="M3.24569 41.6726C3.12354 41.8878 2.94322 42.0623 2.69311 42.1961C2.44299 42.3299 2.14053 42.3939 1.77408 42.3939H1.09353V44.0051H0V39.5146H1.77408C2.13471 39.5146 2.43718 39.5786 2.68148 39.7008C2.93159 39.8229 3.11191 39.9974 3.23987 40.2126C3.36202 40.4279 3.42601 40.678 3.42601 40.963C3.42601 41.2247 3.36784 41.4632 3.24569 41.6784V41.6726ZM2.15798 41.376C2.26268 41.2771 2.30921 41.1375 2.30921 40.963C2.30921 40.7885 2.25686 40.6431 2.15798 40.55C2.05328 40.4511 1.90204 40.4046 1.69264 40.4046H1.09935V41.533H1.69264C1.90204 41.533 2.05909 41.4865 2.15798 41.3876V41.376Z" fill="#2B2B2B"/>
<path d="M6.34617 43.8883C6.08442 43.7836 5.88084 43.6265 5.72379 43.4171C5.56674 43.2078 5.48531 42.9576 5.47949 42.661H6.64282C6.66027 42.8297 6.71844 42.9518 6.81732 43.0391C6.9162 43.1263 7.04417 43.1729 7.20122 43.1729C7.35827 43.1729 7.49205 43.1379 7.58512 43.0623C7.67819 42.9867 7.72472 42.882 7.72472 42.7541C7.72472 42.6435 7.68982 42.5505 7.6142 42.4807C7.53859 42.4109 7.44552 42.3469 7.34082 42.3004C7.2303 42.2538 7.07907 42.2015 6.87549 42.1375C6.58466 42.0502 6.34617 41.9572 6.16586 41.8699C5.97972 41.7827 5.82267 41.6489 5.69471 41.4744C5.56093 41.2999 5.49694 41.073 5.49694 40.788C5.49694 40.3692 5.64817 40.0435 5.95064 39.805C6.25311 39.5665 6.64864 39.4502 7.13142 39.4502C7.6142 39.4502 8.02718 39.5665 8.32965 39.805C8.63212 40.0435 8.79498 40.3692 8.81825 40.7938H7.63747C7.62584 40.6484 7.57349 40.5321 7.4746 40.4507C7.37572 40.3692 7.25357 40.3285 7.09652 40.3285C6.96274 40.3285 6.85804 40.3634 6.7766 40.4332C6.69517 40.503 6.65445 40.6019 6.65445 40.7357C6.65445 40.8811 6.72425 40.9916 6.85804 41.073C6.99182 41.1545 7.20704 41.2417 7.49787 41.3348C7.7887 41.4337 8.02137 41.5267 8.2075 41.614C8.38782 41.7012 8.54487 41.835 8.67865 42.0037C8.81243 42.1724 8.87642 42.3934 8.87642 42.661C8.87642 42.9285 8.81243 43.1496 8.67865 43.359C8.54487 43.5684 8.35873 43.7312 8.11443 43.8592C7.87013 43.9872 7.57349 44.0453 7.23612 44.0453C6.89875 44.0453 6.61374 43.993 6.35199 43.8825L6.34617 43.8883Z" fill="#2B2B2B"/>
<path d="M13.9659 39.5146V42.5742C13.9659 43.0454 13.8321 43.4118 13.5645 43.6677C13.297 43.9237 12.9363 44.0516 12.4885 44.0516C12.0406 44.0516 11.6334 43.9179 11.3484 43.6503C11.0634 43.3827 10.918 42.9988 10.918 42.5044H12.0057C12.0057 42.6905 12.0464 42.836 12.122 42.929C12.1976 43.0221 12.3081 43.0744 12.4536 43.0744C12.5873 43.0744 12.6862 43.0337 12.7618 42.9465C12.8316 42.8592 12.8724 42.7371 12.8724 42.5742V39.5146H13.9659Z" fill="#2B2B2B"/>
<path d="M19.4445 40.9335C19.3631 40.7823 19.2467 40.6718 19.0955 40.5903C18.9443 40.5089 18.7639 40.474 18.5604 40.474C18.2055 40.474 17.9205 40.5903 17.7111 40.823C17.4959 41.0557 17.3912 41.364 17.3912 41.7537C17.3912 42.1667 17.5017 42.4924 17.7286 42.7251C17.9496 42.9577 18.2579 43.0741 18.6534 43.0741C18.921 43.0741 19.1478 43.0043 19.334 42.8705C19.5201 42.7367 19.6539 42.5389 19.7411 42.283H18.351V41.4745H20.73V42.4924C20.6485 42.7658 20.5089 43.0217 20.317 43.2544C20.125 43.487 19.8749 43.679 19.5783 43.8244C19.2816 43.9698 18.9443 44.0396 18.5662 44.0396C18.1241 44.0396 17.7286 43.9407 17.3796 43.7488C17.0306 43.5568 16.763 43.2835 16.5652 42.9403C16.3733 42.5971 16.2744 42.2016 16.2744 41.7537C16.2744 41.3058 16.3733 40.9161 16.5652 40.5671C16.7572 40.2181 17.0306 39.9505 17.3738 39.7527C17.7169 39.5608 18.1125 39.4619 18.5604 39.4619C19.0955 39.4619 19.5492 39.5899 19.9215 39.8516C20.2937 40.1134 20.5322 40.474 20.6544 40.9335H19.4445Z" fill="#2B2B2B"/>
<path d="M24.0457 43.1617H25.4766V44.0051H22.9521V39.5146H24.0457V43.1617Z" fill="#2B2B2B"/>
<path d="M28.5775 43.755C28.2285 43.5572 27.9435 43.2838 27.7399 42.9348C27.5305 42.5858 27.4316 42.1845 27.4316 41.7482C27.4316 41.312 27.5363 40.9164 27.7399 40.5616C27.9493 40.2126 28.2285 39.9392 28.5775 39.7415C28.9265 39.5437 29.3162 39.4448 29.7409 39.4448C30.1655 39.4448 30.5494 39.5437 30.9042 39.7415C31.2532 39.9392 31.5324 40.2126 31.736 40.5616C31.9395 40.9106 32.0384 41.3062 32.0384 41.7482C32.0384 42.1903 31.9337 42.5858 31.7301 42.9348C31.5266 43.2896 31.2474 43.563 30.8984 43.755C30.5494 43.9527 30.1596 44.0516 29.7409 44.0516C29.3221 44.0516 28.9323 43.9527 28.5775 43.755ZM30.6017 42.6905C30.8169 42.452 30.9274 42.1379 30.9274 41.7424C30.9274 41.3469 30.8169 41.027 30.6017 40.7943C30.3865 40.5558 30.1015 40.4395 29.7409 40.4395C29.3802 40.4395 29.0894 40.5558 28.8742 40.7885C28.659 41.0211 28.5484 41.341 28.5484 41.7424C28.5484 42.1437 28.659 42.4578 28.8742 42.6905C29.0894 42.929 29.3802 43.0453 29.7409 43.0453C30.1015 43.0453 30.3865 42.9232 30.6017 42.6847V42.6905Z" fill="#2B2B2B"/>
<path d="M37.6043 42.0914C37.7613 42.295 37.8428 42.5277 37.8428 42.7836C37.8428 43.1559 37.709 43.4583 37.4472 43.6735C37.1855 43.8888 36.819 44.0051 36.3479 44.0051H34.2539V39.5146H36.2781C36.7318 39.5146 37.0924 39.6193 37.3484 39.8287C37.6043 40.0381 37.7381 40.3232 37.7381 40.678C37.7381 40.9397 37.6683 41.1608 37.5287 41.3353C37.3891 41.5098 37.2029 41.6319 36.9761 41.7017C37.2378 41.7599 37.4472 41.8878 37.6043 42.0914ZM35.3533 41.3353H36.0687C36.249 41.3353 36.3828 41.2945 36.4817 41.2189C36.5806 41.1433 36.6271 41.027 36.6271 40.8699C36.6271 40.7129 36.5806 40.6024 36.4817 40.5209C36.3828 40.4395 36.249 40.3988 36.0687 40.3988H35.3533V41.3411V41.3353ZM36.5864 43.0046C36.6853 42.9232 36.7376 42.8011 36.7376 42.644C36.7376 42.487 36.6853 42.3648 36.5806 42.2717C36.4759 42.1787 36.3305 42.138 36.1501 42.138H35.3591V43.1326H36.1676C36.3479 43.1326 36.4933 43.0919 36.5922 43.0105L36.5864 43.0046Z" fill="#2B2B2B"/>
<path d="M42.8806 43.214H41.2054L40.9379 44.0051H39.792L41.4148 39.5146H42.6829L44.3057 44.0051H43.1482L42.8806 43.214ZM42.6014 42.3706L42.043 40.7245L41.4905 42.3706H42.5956H42.6014Z" fill="#2B2B2B"/>
<path d="M47.5037 43.1617H48.9346V44.0051H46.4102V39.5146H47.5037V43.1617Z" fill="#2B2B2B"/>
</svg>
